<svg width="160" height="50" viewBox="0 0 160 50" fill="none" xmlns="http://www.w3.org/2000/svg">
<g clip-path="url(#clip0_11116_2763)">
<path d="M79.5739 22.3011C79.5739 18.267 76.3068 15 72.2727 15C68.267 15 65 18.267 65 22.3011V27.7273C65 31.733 68.267 35 72.2727 35C76.3068 35 79.5739 31.733 79.5739 27.7273V22.3011ZM75.8523 27.7273C75.8523 29.6591 74.233 31.2784 72.2727 31.2784C70.3125 31.2784 68.7216 29.6591 68.7216 27.7273V22.3011C68.7216 20.3409 70.3125 18.7216 72.2727 18.7216C74.233 18.7216 75.8523 20.3409 75.8523 22.3011V27.7273Z" fill="#FCFDFF"/>
<path d="M97.3983 35V15H93.6768V27.1023L86.2336 15H82.8245V35H86.5461V22.9261L93.9893 35H97.3983Z" fill="#FCFDFF"/>
<path d="M115.792 35V31.2784H104.94V26.875H115.792V23.1534H104.94V18.7216H115.792V15H101.218V35H115.792Z" fill="#FCFDFF"/>
<path d="M141.559 15H137.837V27.7273C137.837 29.6591 136.218 31.2784 134.258 31.2784C132.298 31.2784 130.707 29.6591 130.707 27.7273V15H126.985V27.7273C126.985 31.733 130.252 35 134.258 35C138.292 35 141.559 31.733 141.559 27.7273V15Z" fill="#FCFDFF"/>
<path d="M159.654 20.9375C159.654 17.7273 157.097 15 153.83 15H145.08V35H148.802V26.875H153.83C157.097 26.875 159.654 24.1477 159.654 20.9375ZM155.933 20.9375C155.933 22.1023 155.052 23.125 153.83 23.125H148.802V18.7216H153.83C155.052 18.7216 155.933 19.7727 155.933 20.9375Z" fill="#FCFDFF"/>
<g clip-path="url(#clip1_11116_2763)">
<path d="M23.9292 8.15122C30.66 8.15122 36.6696 11.2107 40.5594 16.1932L47.8802 12.3689C42.5699 4.8951 33.8287 0 23.9292 0C14.0516 0 5.31032 4.89511 0 12.347L7.32081 16.1713C11.1888 11.2107 17.1984 8.15122 23.9292 8.15122Z" fill="#43EFC9"/>
<path d="M23.9292 41.8706C17.1984 41.8706 11.1888 38.5927 7.32081 33.8287L0 37.653C5.31032 45.1049 14.0516 50 23.9292 50C33.8068 50 42.5481 45.1049 47.8802 37.6311L40.5594 33.8068C36.6696 38.5927 30.6818 41.8706 23.9292 41.8706Z" fill="#43EFC9"/>
<path d="M28.7589 33.7413V16.2587H27.6225H22.3559H15.647V22.8147H22.2029V33.7413H28.7589Z" fill="white"/>
</g>
</g>
<defs>
<clipPath id="clip0_11116_2763">
<rect width="159.654" height="50" fill="white"/>
</clipPath>
<clipPath id="clip1_11116_2763">
<rect width="47.8802" height="50" fill="white"/>
</clipPath>
</defs>
</svg>
